<svg width="256" height="256" viewBox="0 0 16 16" xmlns="http://www.w3.org/2000/svg">
<path fill="#000" d="M8 0C3.6 0 0 3.7 0 8.2c0 3.6 2.3 6.6 5.5 7.7.4.1.5-.2.5-.4v-1.4c-2.2.5-2.7-1.1-2.7-1.1-.4-1-.9-1.3-.9-1.3-.7-.5.1-.5.1-.5.8.1 1.2.9 1.2.9.7 1.2 1.9.8 2.4.6.1-.5.3-.8.5-1-1.8-.2-3.6-.9-3.6-4 0-.9.3-1.6.8-2.2-.1-.2-.4-1.1.1-2.2 0 0 .7-.2 2.2.9.7-.2 1.4-.3 2.2-.3s1.5.1 2.2.3c1.5-1.1 2.2-.9 2.2-.9.5 1.1.2 2 .1 2.2.5.6.8 1.3.8 2.2 0 3.1-1.8 3.8-3.6 4 .3.3.6.8.6 1.6v2.4c0 .2.1.5.5.4C13.7 14.8 16 11.8 16 8.2 16 3.7 12.4 0 8 0z"/>
</svg>
